<svg width="24" height="25" viewBox="0 0 24 25" fill="none" xmlns="http://www.w3.org/2000/svg">
<path d="M12 22.25C17.5228 22.25 22 17.7728 22 12.25C22 6.72715 17.5228 2.25 12 2.25C6.47715 2.25 2 6.72715 2 12.25C2 17.7728 6.47715 22.25 12 22.25Z" fill="#9E9E9E"/>
<path d="M9 11.75V6.75H12.396C13.834 6.75 15 7.8695 15 9.25C15 10.6305 13.834 11.75 12.396 11.75H9ZM9 11.75H13.4155C14.843 11.75 16 13.093 16 14.75C16 16.407 14.843 17.75 13.4155 17.75H9V11.75Z" stroke="white" stroke-width="2" stroke-linecap="round" stroke-linejoin="round"/>
</svg>
