<svg width="21" height="21" viewBox="0 0 21 21" fill="none" xmlns="http://www.w3.org/2000/svg">
<path d="M19.86 6.61985L12.93 1.07985C11.86 0.219849 10.13 0.219849 9.06999 1.06985L2.13999 6.61985C1.35999 7.23985 0.85999 8.54985 1.02999 9.52985L2.35999 17.4898C2.59999 18.9098 3.95999 20.0598 5.39999 20.0598H16.6C18.03 20.0598 19.4 18.8998 19.64 17.4898L20.97 9.52985C21.13 8.54985 20.63 7.23985 19.86 6.61985ZM11 13.7498C10.3369 13.7498 9.70106 13.4865 9.23222 13.0176C8.76338 12.5488 8.49999 11.9129 8.49999 11.2498C8.49999 10.5868 8.76338 9.95092 9.23222 9.48208C9.70106 9.01324 10.3369 8.74985 11 8.74985C11.663 8.74985 12.2989 9.01324 12.7678 9.48208C13.2366 9.95092 13.5 10.5868 13.5 11.2498C13.5 11.9129 13.2366 12.5488 12.7678 13.0176C12.2989 13.4865 11.663 13.7498 11 13.7498Z" fill="#9E9E9E"/>
</svg>
