<svg width="45" height="45" viewBox="0 0 45 45" fill="none" xmlns="http://www.w3.org/2000/svg">
<rect width="45" height="45" rx="4" fill="#ECEAF5"/>
<path d="M15.2083 21.4584V23.5417H17.2916V21.4584H15.2083ZM18.3333 21.4584V23.5417H20.4166V21.4584H18.3333ZM21.4583 21.4584V23.5417H23.5416V21.4584H21.4583ZM15.2083 18.3334V20.4167H17.2916V18.3334H15.2083ZM18.3333 18.3334V20.4167H20.4166V18.3334H18.3333ZM21.4583 18.3334V20.4167H23.5416V18.3334H21.4583ZM24.5833 18.3334V20.4167H26.6666V18.3334H24.5833ZM27.7083 18.3334V20.4167H29.7916V18.3334H27.7083ZM28.75 32.9167L27.2916 31.4584L28.9323 29.7917H24.5833V27.7084H28.9323L27.2916 26.0417L28.75 24.5834L32.9166 28.75L28.75 32.9167ZM22.6041 29.7917H14.1666C13.5937 29.7917 13.1035 29.5879 12.6958 29.1802C12.2875 28.7719 12.0833 28.2813 12.0833 27.7084V17.2917C12.0833 16.7188 12.2875 16.2285 12.6958 15.8209C13.1035 15.4125 13.5937 15.2084 14.1666 15.2084H30.8333C31.4062 15.2084 31.8969 15.4125 32.3052 15.8209C32.7128 16.2285 32.9166 16.7188 32.9166 17.2917V24.0886C32.4653 23.6893 31.975 23.3636 31.4458 23.1115C30.916 22.8601 30.3646 22.691 29.7916 22.6042V21.4584H27.7083V22.6042C27.5173 22.6389 27.3396 22.6737 27.175 22.7084C27.0097 22.7431 26.8403 22.7952 26.6666 22.8646V21.4584H24.5833V23.5417H25.3125C25.0868 23.6806 24.8785 23.841 24.6875 24.023C24.4965 24.2056 24.3055 24.3924 24.1146 24.5834H18.3333V26.6667H22.8646C22.743 26.9966 22.6562 27.3351 22.6041 27.6823C22.5521 28.0296 22.526 28.3855 22.526 28.75C22.526 28.941 22.5305 29.1188 22.5396 29.2834C22.5479 29.4487 22.5694 29.6181 22.6041 29.7917Z" fill="#6756AE"/>
</svg>
