<svg width="58" height="58" viewBox="0 0 58 58" fill="none" xmlns="http://www.w3.org/2000/svg">
<rect width="58" height="58" rx="4.60929" fill="#D0E6F5"/>
<path fill-rule="evenodd" clip-rule="evenodd" d="M28.9997 39.7799C29.3635 39.7798 29.7022 39.5944 29.8983 39.2879C31.9882 36.0186 36.8488 28.0425 36.8488 24.5736C36.8488 20.2381 33.3341 16.7234 28.9986 16.7234C24.663 16.7234 21.1483 20.2381 21.1483 24.5736C21.1483 28.0425 26.009 36.0197 28.0999 39.2879C28.2952 39.5957 28.6351 39.7816 28.9997 39.7799ZM34.0441 36.2413C33.4567 36.1918 32.9404 36.6278 32.8909 37.2153C32.8413 37.8027 33.2774 38.319 33.8648 38.3685C35.2188 38.4682 36.565 38.6547 37.8951 38.9267C38.017 38.9539 38.1038 39.0622 38.1038 39.1871C38.1038 39.3121 38.017 39.4204 37.8951 39.4476C34.9647 40.0107 31.9833 40.265 28.9999 40.2065C26.0168 40.2649 23.0358 40.0106 20.1058 39.4476C19.9838 39.4204 19.8971 39.3121 19.8971 39.1871C19.8971 39.0622 19.9838 38.9539 20.1058 38.9267C21.4218 38.657 22.7537 38.4716 24.0934 38.3717C24.6677 38.3067 25.086 37.7963 25.0368 37.2204C24.9877 36.6445 24.489 36.2123 23.9119 36.2456C16.1919 36.8977 16.1919 38.4987 16.1919 39.1861C16.1919 42.0337 25.0689 42.3411 28.9999 42.3411C32.9309 42.3411 41.8079 42.0337 41.8079 39.1861C41.8079 38.4987 41.8079 36.8977 34.0441 36.2413ZM28.9999 20.4617C26.9367 20.4617 25.2642 22.1342 25.2642 24.1974C25.2642 26.2605 26.9367 27.933 28.9999 27.933C31.063 27.933 32.7355 26.2605 32.7355 24.1974C32.7355 22.1342 31.063 20.4617 28.9999 20.4617Z" fill="#3D628D"/>
<mask id="mask0_1432_6286" style="mask-type:alpha" maskUnits="userSpaceOnUse" x="16" y="16" width="26" height="27">
<path fill-rule="evenodd" clip-rule="evenodd" d="M28.9997 39.7799C29.3635 39.7798 29.7022 39.5944 29.8983 39.2879C31.9882 36.0186 36.8488 28.0425 36.8488 24.5736C36.8488 20.2381 33.3341 16.7234 28.9986 16.7234C24.663 16.7234 21.1483 20.2381 21.1483 24.5736C21.1483 28.0425 26.009 36.0197 28.0999 39.2879C28.2952 39.5957 28.6351 39.7816 28.9997 39.7799ZM34.0441 36.2413C33.4567 36.1918 32.9404 36.6278 32.8909 37.2153C32.8413 37.8027 33.2774 38.319 33.8648 38.3685C35.2188 38.4682 36.565 38.6547 37.8951 38.9267C38.017 38.9539 38.1038 39.0622 38.1038 39.1871C38.1038 39.3121 38.017 39.4204 37.8951 39.4476C34.9647 40.0107 31.9833 40.265 28.9999 40.2065C26.0168 40.2649 23.0358 40.0106 20.1058 39.4476C19.9838 39.4204 19.8971 39.3121 19.8971 39.1871C19.8971 39.0622 19.9838 38.9539 20.1058 38.9267C21.4218 38.657 22.7537 38.4716 24.0934 38.3717C24.6677 38.3067 25.086 37.7963 25.0368 37.2204C24.9877 36.6445 24.489 36.2123 23.9119 36.2456C16.1919 36.8977 16.1919 38.4987 16.1919 39.1861C16.1919 42.0337 25.0689 42.3411 28.9999 42.3411C32.9309 42.3411 41.8079 42.0337 41.8079 39.1861C41.8079 38.4987 41.8079 36.8977 34.0441 36.2413ZM28.9999 20.4617C26.9367 20.4617 25.2642 22.1342 25.2642 24.1974C25.2642 26.2605 26.9367 27.933 28.9999 27.933C31.063 27.933 32.7355 26.2605 32.7355 24.1974C32.7355 22.1342 31.063 20.4617 28.9999 20.4617Z" fill="white"/>
</mask>
<g mask="url(#mask0_1432_6286)">
</g>
</svg>
