<svg width="45" height="45" viewBox="0 0 45 45" fill="none" xmlns="http://www.w3.org/2000/svg">
<rect width="45" height="45" rx="4" fill="#ECEAF5"/>
<path d="M20.4167 12.0835V14.4377L22.5 15.8231V14.1668H32.9167V29.7918H27.7083V31.8752H35V12.0835H20.4167ZM17.8125 15.2085L10 20.4168V31.8752H25.625V20.4168L17.8125 15.2085ZM24.5833 16.2502V17.2189L26.2604 18.3335H26.6667V16.2502H24.5833ZM28.75 16.2502V18.3335H30.8333V16.2502H28.75ZM17.8125 17.8127L23.5417 21.4585V29.7918H20.4167V23.5418H15.2083V29.7918H12.0833V21.4585L17.8125 17.8127ZM28.75 20.4168V22.5002H30.8333V20.4168H28.75ZM28.75 24.5835V26.6668H30.8333V24.5835H28.75Z" fill="#6756AE"/>
</svg>
