<svg width="45" height="46" viewBox="0 0 45 46" fill="none" xmlns="http://www.w3.org/2000/svg">
<rect y="0.5" width="45" height="45" rx="4" fill="#D0E6F5"/>
<path d="M27.7084 32.375H17.2917C16.7392 32.375 16.2093 32.1555 15.8186 31.7648C15.4279 31.3741 15.2084 30.8442 15.2084 30.2917V15.7083C15.2084 15.1558 15.4279 14.6259 15.8186 14.2352C16.2093 13.8445 16.7392 13.625 17.2917 13.625H24.5834L29.7917 18.8333V30.2917C29.7917 30.8442 29.5722 31.3741 29.1815 31.7648C28.7908 32.1555 28.2609 32.375 27.7084 32.375Z" fill="#3D628D"/>
<path d="M24.5834 14.6665V17.9998C24.5834 18.2209 24.6712 18.4328 24.8275 18.5891C24.9837 18.7454 25.1957 18.8332 25.4167 18.8332H28.75" stroke="white" stroke-width="2" stroke-linecap="square" stroke-linejoin="round"/>
<path d="M24.5834 21.9582H21.9792C21.5648 21.9582 21.1674 22.1228 20.8744 22.4158C20.5814 22.7088 20.4167 23.1063 20.4167 23.5207C20.4167 23.9351 20.5814 24.3325 20.8744 24.6255C21.1674 24.9186 21.5648 25.0832 21.9792 25.0832H23.0209C23.4353 25.0832 23.8327 25.2478 24.1258 25.5408C24.4188 25.8338 24.5834 26.2313 24.5834 26.6457C24.5834 27.0601 24.4188 27.4575 24.1258 27.7505C23.8327 28.0435 23.4353 28.2082 23.0209 28.2082H20.4167M22.5001 28.2082V29.2498M22.5001 20.9165V21.9582" stroke="white" stroke-width="2" stroke-linecap="round" stroke-linejoin="round"/>
</svg>
