<svg width="45" height="45" viewBox="0 0 45 45" fill="none" xmlns="http://www.w3.org/2000/svg">
<rect width="45" height="45" rx="4" fill="#FEF3C7"/>
<path fill-rule="evenodd" clip-rule="evenodd" d="M30.4911 14.1616H25.6269C25.435 14.1616 25.2795 14.3172 25.2795 14.5091V30.4913C25.2795 30.6831 25.435 30.8387 25.6269 30.8387H30.4911C30.683 30.8387 30.8385 30.6831 30.8385 30.4913V14.5091C30.8385 14.3172 30.683 14.1616 30.4911 14.1616ZM20.4598 19.5469H16.0411C15.5928 19.574 15.1536 19.4125 14.8296 19.1014C14.5057 18.7904 14.3264 18.3581 14.3352 17.9091C14.335 17.0819 14.9507 16.384 15.7715 16.281C16.1102 15.1289 17.1667 14.3371 18.3675 14.3353C19.2595 14.338 20.0891 14.7934 20.5703 15.5444C21.5763 15.682 22.3228 16.5464 22.3124 17.5617C22.302 18.5769 21.5379 19.4259 20.5293 19.5428C20.5063 19.5457 20.483 19.547 20.4598 19.5469ZM17.9833 24.2374H15.4358C15.1552 24.2371 14.9018 24.4057 14.7938 24.6647L14.2149 26.0545C14.1255 26.2689 14.1491 26.514 14.278 26.7073C14.4069 26.9007 14.6239 27.0169 14.8563 27.0169H17.9833C18.1752 27.0169 18.3307 26.8613 18.3307 26.6694V24.5848C18.3307 24.3929 18.1752 24.2374 17.9833 24.2374ZM14.8563 28.2118C14.8563 27.9356 15.0802 27.7118 15.3563 27.7118H17.8307C18.1069 27.7118 18.3307 27.9356 18.3307 28.2118V30.3387C18.3307 30.6148 18.1069 30.8387 17.8307 30.8387H15.3563C15.0802 30.8387 14.8563 30.6148 14.8563 30.3387V28.2118ZM27.0167 26.8432C27.3045 26.8432 27.5378 26.6098 27.5378 26.322V25.6271C27.5378 25.3393 27.3045 25.106 27.0167 25.106C26.7289 25.106 26.4955 25.3393 26.4955 25.6271V26.322C26.4955 26.6098 26.7289 26.8432 27.0167 26.8432ZM27.5378 23.195C27.5378 23.4829 27.3045 23.7162 27.0167 23.7162C26.7289 23.7162 26.4955 23.4829 26.4955 23.195V22.5002C26.4955 22.2123 26.7289 21.979 27.0167 21.979C27.3045 21.979 27.5378 22.2123 27.5378 22.5002V23.195ZM27.0167 20.5892C27.3045 20.5892 27.5378 20.3559 27.5378 20.0681V19.3732C27.5378 19.0854 27.3045 18.8521 27.0167 18.8521C26.7289 18.8521 26.4955 19.0854 26.4955 19.3732V20.0681C26.4955 20.3559 26.7289 20.5892 27.0167 20.5892ZM27.5378 16.9411C27.5378 17.229 27.3045 17.4623 27.0167 17.4623C26.7289 17.4623 26.4955 17.229 26.4955 16.9411V16.2463C26.4955 15.9584 26.7289 15.7251 27.0167 15.7251C27.3045 15.7251 27.5378 15.9584 27.5378 16.2463V16.9411ZM29.1013 26.8432C29.3892 26.8432 29.6225 26.6098 29.6225 26.322V25.6271C29.6225 25.3393 29.3892 25.106 29.1013 25.106C28.8135 25.106 28.5802 25.3393 28.5802 25.6271V26.322C28.5802 26.6098 28.8135 26.8432 29.1013 26.8432ZM29.6225 23.195C29.6225 23.4829 29.3892 23.7162 29.1013 23.7162C28.8135 23.7162 28.5802 23.4829 28.5802 23.195V22.5002C28.5802 22.2123 28.8135 21.979 29.1013 21.979C29.3892 21.979 29.6225 22.2123 29.6225 22.5002V23.195ZM29.1013 20.5892C29.3892 20.5892 29.6225 20.3559 29.6225 20.0681V19.3732C29.6225 19.0854 29.3892 18.8521 29.1013 18.8521C28.8135 18.8521 28.5802 19.0854 28.5802 19.3732V20.0681C28.5802 20.3559 28.8135 20.5892 29.1013 20.5892ZM29.6225 16.9411C29.6225 17.229 29.3892 17.4623 29.1013 17.4623C28.8135 17.4623 28.5802 17.229 28.5802 16.9411V16.2463C28.5802 15.9584 28.8135 15.7251 29.1013 15.7251C29.3892 15.7251 29.6225 15.9584 29.6225 16.2463V16.9411ZM21.5598 21.2119C21.6955 21.0762 21.9154 21.0762 22.0511 21.2119L24.4832 23.6439C24.5483 23.7092 24.5848 23.7977 24.5846 23.8899V30.4913C24.5846 30.6831 24.4291 30.8387 24.2372 30.8387H19.373C19.1811 30.8387 19.0256 30.6831 19.0256 30.4913V23.8899C19.0256 23.7976 19.0624 23.7091 19.1277 23.6439L21.5598 21.2119ZM21.2839 28.7541C21.2839 29.0419 21.0506 29.2752 20.7628 29.2752C20.475 29.2752 20.2416 29.0419 20.2416 28.7541V28.0592C20.2416 27.7714 20.475 27.538 20.7628 27.538C21.0506 27.538 21.2839 27.7714 21.2839 28.0592V28.7541ZM20.7628 26.1483C21.0506 26.1483 21.2839 25.9149 21.2839 25.6271V24.9322C21.2839 24.6444 21.0506 24.4111 20.7628 24.4111C20.475 24.4111 20.2416 24.6444 20.2416 24.9322V25.6271C20.2416 25.9149 20.475 26.1483 20.7628 26.1483ZM23.3686 28.7541C23.3686 29.0419 23.1352 29.2752 22.8474 29.2752C22.5596 29.2752 22.3263 29.0419 22.3263 28.7541V28.0592C22.3263 27.7714 22.5596 27.538 22.8474 27.538C23.1352 27.538 23.3686 27.7714 23.3686 28.0592V28.7541ZM22.8474 26.1483C23.1352 26.1483 23.3686 25.9149 23.3686 25.6271V24.9322C23.3686 24.6444 23.1352 24.4111 22.8474 24.4111C22.5596 24.4111 22.3263 24.6444 22.3263 24.9322V25.6271C22.3263 25.9149 22.5596 26.1483 22.8474 26.1483Z" fill="#D97706"/>
<mask id="mask0_2409_11307" style="mask-type:alpha" maskUnits="userSpaceOnUse" x="14" y="14" width="17" height="17">
<path fill-rule="evenodd" clip-rule="evenodd" d="M30.4911 14.1616H25.6269C25.435 14.1616 25.2795 14.3172 25.2795 14.5091V30.4913C25.2795 30.6831 25.435 30.8387 25.6269 30.8387H30.4911C30.683 30.8387 30.8385 30.6831 30.8385 30.4913V14.5091C30.8385 14.3172 30.683 14.1616 30.4911 14.1616ZM20.4598 19.5469H16.0411C15.5928 19.574 15.1536 19.4125 14.8296 19.1014C14.5057 18.7904 14.3264 18.3581 14.3352 17.9091C14.335 17.0819 14.9507 16.384 15.7715 16.281C16.1102 15.1289 17.1667 14.3371 18.3675 14.3353C19.2595 14.338 20.0891 14.7934 20.5703 15.5444C21.5763 15.682 22.3228 16.5464 22.3124 17.5617C22.302 18.5769 21.5379 19.4259 20.5293 19.5428C20.5063 19.5457 20.483 19.547 20.4598 19.5469ZM17.9833 24.2374H15.4358C15.1552 24.2371 14.9018 24.4057 14.7938 24.6647L14.2149 26.0545C14.1255 26.2689 14.1491 26.514 14.278 26.7073C14.4069 26.9007 14.6239 27.0169 14.8563 27.0169H17.9833C18.1752 27.0169 18.3307 26.8613 18.3307 26.6694V24.5848C18.3307 24.3929 18.1752 24.2374 17.9833 24.2374ZM14.8563 28.2118C14.8563 27.9356 15.0802 27.7118 15.3563 27.7118H17.8307C18.1069 27.7118 18.3307 27.9356 18.3307 28.2118V30.3387C18.3307 30.6148 18.1069 30.8387 17.8307 30.8387H15.3563C15.0802 30.8387 14.8563 30.6148 14.8563 30.3387V28.2118ZM27.0167 26.8432C27.3045 26.8432 27.5378 26.6098 27.5378 26.322V25.6271C27.5378 25.3393 27.3045 25.106 27.0167 25.106C26.7289 25.106 26.4955 25.3393 26.4955 25.6271V26.322C26.4955 26.6098 26.7289 26.8432 27.0167 26.8432ZM27.5378 23.195C27.5378 23.4829 27.3045 23.7162 27.0167 23.7162C26.7289 23.7162 26.4955 23.4829 26.4955 23.195V22.5002C26.4955 22.2123 26.7289 21.979 27.0167 21.979C27.3045 21.979 27.5378 22.2123 27.5378 22.5002V23.195ZM27.0167 20.5892C27.3045 20.5892 27.5378 20.3559 27.5378 20.0681V19.3732C27.5378 19.0854 27.3045 18.8521 27.0167 18.8521C26.7289 18.8521 26.4955 19.0854 26.4955 19.3732V20.0681C26.4955 20.3559 26.7289 20.5892 27.0167 20.5892ZM27.5378 16.9411C27.5378 17.229 27.3045 17.4623 27.0167 17.4623C26.7289 17.4623 26.4955 17.229 26.4955 16.9411V16.2463C26.4955 15.9584 26.7289 15.7251 27.0167 15.7251C27.3045 15.7251 27.5378 15.9584 27.5378 16.2463V16.9411ZM29.1013 26.8432C29.3892 26.8432 29.6225 26.6098 29.6225 26.322V25.6271C29.6225 25.3393 29.3892 25.106 29.1013 25.106C28.8135 25.106 28.5802 25.3393 28.5802 25.6271V26.322C28.5802 26.6098 28.8135 26.8432 29.1013 26.8432ZM29.6225 23.195C29.6225 23.4829 29.3892 23.7162 29.1013 23.7162C28.8135 23.7162 28.5802 23.4829 28.5802 23.195V22.5002C28.5802 22.2123 28.8135 21.979 29.1013 21.979C29.3892 21.979 29.6225 22.2123 29.6225 22.5002V23.195ZM29.1013 20.5892C29.3892 20.5892 29.6225 20.3559 29.6225 20.0681V19.3732C29.6225 19.0854 29.3892 18.8521 29.1013 18.8521C28.8135 18.8521 28.5802 19.0854 28.5802 19.3732V20.0681C28.5802 20.3559 28.8135 20.5892 29.1013 20.5892ZM29.6225 16.9411C29.6225 17.229 29.3892 17.4623 29.1013 17.4623C28.8135 17.4623 28.5802 17.229 28.5802 16.9411V16.2463C28.5802 15.9584 28.8135 15.7251 29.1013 15.7251C29.3892 15.7251 29.6225 15.9584 29.6225 16.2463V16.9411ZM21.5598 21.2119C21.6955 21.0762 21.9154 21.0762 22.0511 21.2119L24.4832 23.6439C24.5483 23.7092 24.5848 23.7977 24.5846 23.8899V30.4913C24.5846 30.6831 24.4291 30.8387 24.2372 30.8387H19.373C19.1811 30.8387 19.0256 30.6831 19.0256 30.4913V23.8899C19.0256 23.7976 19.0624 23.7091 19.1277 23.6439L21.5598 21.2119ZM21.2839 28.7541C21.2839 29.0419 21.0506 29.2752 20.7628 29.2752C20.475 29.2752 20.2416 29.0419 20.2416 28.7541V28.0592C20.2416 27.7714 20.475 27.538 20.7628 27.538C21.0506 27.538 21.2839 27.7714 21.2839 28.0592V28.7541ZM20.7628 26.1483C21.0506 26.1483 21.2839 25.9149 21.2839 25.6271V24.9322C21.2839 24.6444 21.0506 24.4111 20.7628 24.4111C20.475 24.4111 20.2416 24.6444 20.2416 24.9322V25.6271C20.2416 25.9149 20.475 26.1483 20.7628 26.1483ZM23.3686 28.7541C23.3686 29.0419 23.1352 29.2752 22.8474 29.2752C22.5596 29.2752 22.3263 29.0419 22.3263 28.7541V28.0592C22.3263 27.7714 22.5596 27.538 22.8474 27.538C23.1352 27.538 23.3686 27.7714 23.3686 28.0592V28.7541ZM22.8474 26.1483C23.1352 26.1483 23.3686 25.9149 23.3686 25.6271V24.9322C23.3686 24.6444 23.1352 24.4111 22.8474 24.4111C22.5596 24.4111 22.3263 24.6444 22.3263 24.9322V25.6271C22.3263 25.9149 22.5596 26.1483 22.8474 26.1483Z" fill="white"/>
</mask>
<g mask="url(#mask0_2409_11307)">
</g>
</svg>
