<svg width="58" height="58" viewBox="0 0 58 58" fill="none" xmlns="http://www.w3.org/2000/svg">
<rect width="58" height="58" rx="4" fill="#D0F9E3"/>
<path d="M15.6666 42.3334C14.75 42.3334 13.965 42.0068 13.3116 41.3534C12.6583 40.7001 12.3322 39.9156 12.3333 39.0001V19.0001C12.3333 18.0834 12.66 17.2984 13.3133 16.6451C13.9666 15.9918 14.7511 15.6656 15.6666 15.6668H42.3333C43.25 15.6668 44.035 15.9934 44.6883 16.6468C45.3416 17.3001 45.6678 18.0845 45.6666 19.0001V39.0001C45.6666 39.9167 45.34 40.7018 44.6866 41.3551C44.0333 42.0084 43.2489 42.3345 42.3333 42.3334H15.6666ZM15.6666 22.3334H42.3333V19.0001H15.6666V22.3334ZM27.25 31.7501L24.9583 29.4584C24.625 29.1251 24.2222 28.9584 23.75 28.9584C23.2778 28.9584 22.875 29.1251 22.5416 29.4584C22.2083 29.7917 22.0416 30.1945 22.0416 30.6668C22.0416 31.139 22.2083 31.5418 22.5416 31.8751L26.0833 35.4168C26.4166 35.7501 26.8055 35.9167 27.25 35.9167C27.6944 35.9167 28.0833 35.7501 28.4166 35.4168L35.4583 28.3751C35.7916 28.0418 35.9583 27.639 35.9583 27.1667C35.9583 26.6945 35.7916 26.2918 35.4583 25.9584C35.125 25.6251 34.7222 25.4584 34.25 25.4584C33.7778 25.4584 33.375 25.6251 33.0416 25.9584L27.25 31.7501Z" fill="#13837B"/>
</svg>
