<svg width="45" height="46" viewBox="0 0 45 46" fill="none" xmlns="http://www.w3.org/2000/svg">
<rect y="0.5" width="45" height="45" rx="4" fill="#D0F9E3"/>
<path d="M13.125 20.9167C13.125 21.8742 13.3136 22.8224 13.68 23.7071C14.0465 24.5917 14.5836 25.3956 15.2607 26.0727C15.9378 26.7497 16.7416 27.2868 17.6263 27.6533C18.5109 28.0197 19.4591 28.2083 20.4167 28.2083C21.3742 28.2083 22.3224 28.0197 23.2071 27.6533C24.0917 27.2868 24.8956 26.7497 25.5727 26.0727C26.2497 25.3956 26.7868 24.5917 27.1533 23.7071C27.5197 22.8224 27.7083 21.8742 27.7083 20.9167C27.7083 19.9591 27.5197 19.0109 27.1533 18.1263C26.7868 17.2416 26.2497 16.4378 25.5727 15.7607C24.8956 15.0836 24.0917 14.5465 23.2071 14.18C22.3224 13.8136 21.3742 13.625 20.4167 13.625C19.4591 13.625 18.5109 13.8136 17.6263 14.18C16.7416 14.5465 15.9378 15.0836 15.2607 15.7607C14.5836 16.4378 14.0465 17.2416 13.68 18.1263C13.3136 19.0109 13.125 19.9591 13.125 20.9167ZM31.875 32.375L25.625 26.125Z" fill="#D0F9E3"/>
<path d="M31.875 32.375L25.625 26.125M13.125 20.9167C13.125 21.8742 13.3136 22.8224 13.68 23.7071C14.0465 24.5917 14.5836 25.3956 15.2607 26.0727C15.9378 26.7497 16.7416 27.2868 17.6263 27.6533C18.5109 28.0197 19.4591 28.2083 20.4167 28.2083C21.3742 28.2083 22.3224 28.0197 23.2071 27.6533C24.0917 27.2868 24.8956 26.7497 25.5727 26.0727C26.2497 25.3956 26.7868 24.5917 27.1533 23.7071C27.5197 22.8224 27.7083 21.8742 27.7083 20.9167C27.7083 19.9591 27.5197 19.0109 27.1533 18.1263C26.7868 17.2416 26.2497 16.4378 25.5727 15.7607C24.8956 15.0836 24.0917 14.5465 23.2071 14.18C22.3224 13.8136 21.3742 13.625 20.4167 13.625C19.4591 13.625 18.5109 13.8136 17.6263 14.18C16.7416 14.5465 15.9378 15.0836 15.2607 15.7607C14.5836 16.4378 14.0465 17.2416 13.68 18.1263C13.3136 19.0109 13.125 19.9591 13.125 20.9167Z" stroke="#13837B" stroke-width="3" stroke-linecap="round" stroke-linejoin="round"/>
<path d="M22.5 17.7917H19.8959C19.4815 17.7917 19.084 17.9563 18.791 18.2493C18.498 18.5423 18.3334 18.9398 18.3334 19.3542C18.3334 19.7686 18.498 20.166 18.791 20.459C19.084 20.752 19.4815 20.9167 19.8959 20.9167H20.9375C21.3519 20.9167 21.7494 21.0813 22.0424 21.3743C22.3354 21.6673 22.5 22.0648 22.5 22.4792C22.5 22.8936 22.3354 23.291 22.0424 23.584C21.7494 23.877 21.3519 24.0417 20.9375 24.0417H18.3334M20.4167 24.0417V25.0833M20.4167 16.75V17.7917" stroke="#13837B" stroke-width="3" stroke-linecap="round" stroke-linejoin="round"/>
</svg>
