<svg width="24" height="25" viewBox="0 0 24 25" fill="none" xmlns="http://www.w3.org/2000/svg">
<mask id="mask0_1001_9393" style="mask-type:luminance" maskUnits="userSpaceOnUse" x="3" y="2" width="18" height="20">
<path d="M4 4.6C4 4.24196 4.13308 3.89858 4.36997 3.64541C4.60686 3.39223 4.92815 3.25 5.26316 3.25H15.3684C15.7034 3.25 16.0247 3.39223 16.2616 3.64541C16.4985 3.89858 16.6316 4.24196 16.6316 4.6V21.25H5.26316C4.92815 21.25 4.60686 21.1078 4.36997 20.8546C4.13308 20.6014 4 20.258 4 19.9V4.6Z" fill="white" stroke="white" stroke-width="1.5" stroke-linejoin="round"/>
<path d="M16.6316 12.2496C16.6316 12.0109 16.7203 11.782 16.8782 11.6132C17.0362 11.4444 17.2504 11.3496 17.4737 11.3496H19.1579C19.3812 11.3496 19.5954 11.4444 19.7534 11.6132C19.9113 11.782 20 12.0109 20 12.2496V19.8996C20 20.2577 19.8669 20.601 19.63 20.8542C19.3932 21.1074 19.0719 21.2496 18.7369 21.2496H16.6316V12.2496Z" stroke="white" stroke-width="1.5" stroke-linejoin="round"/>
<path d="M6.52637 6.8501H9.89479M6.52637 10.0001H11.579" stroke="black" stroke-width="1.5" stroke-linecap="round" stroke-linejoin="round"/>
</mask>
<g mask="url(#mask0_1001_9393)">
<path d="M1.89478 1.44971H22.1053V23.0497H1.89478V1.44971Z" fill="#9E9E9E"/>
</g>
</svg>
