<svg
                    width="8"
                    height="12"
                    viewBox="0 0 8 12"
                    fill="none"
                    xmlns="http://www.w3.org/2000/svg"
                  >
                    <path
                      d="M3.47015 0.970306C3.76312 0.677338 4.2389 0.677338 4.53187 0.970306L7.53187 3.97031C7.7475 4.18593 7.81078 4.50703 7.69359 4.78828C7.5764 5.06953 7.30453 5.25234 6.99984 5.25234H0.99984C0.697496 5.25234 0.423277 5.06953 0.30609 4.78828C0.188902 4.50703 0.254527 4.18593 0.467809 3.97031L3.46781 0.970306H3.47015ZM3.47015 11.032L0.470152 8.03203C0.254527 7.8164 0.191246 7.49531 0.308434 7.21406C0.425621 6.93281 0.697496 6.74999 1.00218 6.74999H6.99984C7.30218 6.74999 7.5764 6.93281 7.69359 7.21406C7.81078 7.49531 7.74515 7.8164 7.53187 8.03203L4.53187 11.032C4.2389 11.325 3.76312 11.325 3.47015 11.032Z"
                      fill="#737373"
                    />
                  </svg>